{
  "accessors": [
    {
      "bufferView": 2,
      "componentType": 5126,
      "count": 248,
      "max": [
        0.8898910284042358,
        0.7476109862327576,
        1.429919958114624
      ],
      "min": [
        -0.873403012752533,
        -0.9846510291099548,
        0.6973310112953186
      ],
      "type": "VEC3"
    },
    {
      "bufferView": 2,
      "byteOffset": 2976,
      "componentType": 5126,
      "count": 248,
      "max": [
        1.0,
        1.0,
        1.0
      ],
      "min": [
        -1.0,
        -0.9609132409095764,
        -1.0
      ],
      "type": "VEC3"
    },
    {
      "bufferView": 3,
      "componentType": 5126,
      "count": 248,
      "max": [
        1.0,
        1.0,
        1.0,
        1.0
      ],
      "min": [
        -1.0,
        -1.0,
        -1.0,
        1.0
      ],
      "type": "VEC4"
    },
    {
      "bufferView": 1,
      "componentType": 5126,
      "count": 248,
      "max": [
        0.9951170086860657,
        0.9555310010910034
      ],
      "min": [
        0.004882799927145243,
        0.0048828101716935635
      ],
      "type": "VEC2"
    },
    {
      "bufferView": 0,
      "componentType": 5125,
      "count": 426,
      "type": "SCALAR"
    },
    {
      "bufferView": 2,
      "byteOffset": 5952,
      "componentType": 5126,
      "count": 8,
      "max": [
        -0.6231259703636169,
        0.5642449855804443,
        -0.6799309849739075
      ],
      "min": [
        -0.9523509740829468,
        -0.2383130043745041,
        -1.0106699466705322
      ],
      "type": "VEC3"
    },
    {
      "bufferView": 2,
      "byteOffset": 6048,
      "componentType": 5126,
      "count": 8,
      "max": [
        0.8134148716926575,
        0.0,
        -0.5816839337348938
      ],
      "min": [
        -0.5868428945541382,
        0.0,
        -0.8097008466720581
      ],
      "type": "VEC3"
    },
    {
      "bufferView": 3,
      "byteOffset": 3968,
      "componentType": 5126,
      "count": 8,
      "max": [
        -8.827304554870352e-05,
        -1.0,
        8.913817146094516e-05,
        1.0
      ],
      "min": [
        -0.00012298904766794294,
        -1.0,
        -0.0001235542440554127,
        1.0
      ],
      "type": "VEC4"
    },
    {
      "bufferView": 1,
      "byteOffset": 1984,
      "componentType": 5126,
      "count": 8,
      "max": [
        0.818526029586792,
        0.6320260167121887
      ],
      "min": [
        0.2058510035276413,
        0.33221399784088135
      ],
      "type": "VEC2"
    },
    {
      "bufferView": 0,
      "byteOffset": 1704,
      "componentType": 5125,
      "count": 12,
      "type": "SCALAR"
    },
    {
      "bufferView": 2,
      "byteOffset": 6144,
      "componentType": 5126,
      "count": 881,
      "max": [
        0.047312501817941666,
        1.0042500495910645,
        0.14969299733638763
      ],
      "min": [
        -1.1079800128936768,
        -0.9957489967346191,
        -1.0233800411224365
      ],
      "type": "VEC3"
    },
    {
      "bufferView": 2,
      "byteOffset": 16716,
      "componentType": 5126,
      "count": 881,
      "max": [
        0.9997828602790833,
        0.9998342394828796,
        0.9945107698440552
      ],
      "min": [
        -0.9921642541885376,
        -1.0,
        -0.9999483823776245
      ],
      "type": "VEC3"
    },
    {
      "bufferView": 3,
      "byteOffset": 4096,
      "componentType": 5126,
      "count": 881,
      "max": [
        0.9846515655517578,
        0.9996063709259033,
        0.9976432919502258,
        1.0
      ],
      "min": [
        -0.996897280216217,
        -0.9991504549980164,
        -0.998592734336853,
        -1.0
      ],
      "type": "VEC4"
    },
    {
      "bufferView": 1,
      "byteOffset": 2048,
      "componentType": 5126,
      "count": 881,
      "max": [
        0.9951170086860657,
        0.9634739756584167
      ],
      "min": [
        0.0048828101716935635,
        0.0048828101716935635
      ],
      "type": "VEC2"
    },
    {
      "bufferView": 0,
      "byteOffset": 1752,
      "componentType": 5125,
      "count": 3168,
      "type": "SCALAR"
    },
    {
      "bufferView": 2,
      "byteOffset": 27288,
      "componentType": 5126,
      "count": 476,
      "max": [
        -0.522038996219635,
        0.030069500207901,
        -0.38371899724006653
      ],
      "min": [
        -1.0601999759674072,
        -0.7203549742698669,
        -1.14506995677948
      ],
      "type": "VEC3"
    },
    {
      "bufferView": 2,
      "byteOffset": 33000,
      "componentType": 5126,
      "count": 476,
      "max": [
        0.9983401298522949,
        0.9968109726905823,
        0.9961398839950562
      ],
      "min": [
        -0.998652458190918,
        -1.0,
        -0.9888337850570679
      ],
      "type": "VEC3"
    },
    {
      "bufferView": 3,
      "byteOffset": 18192,
      "componentType": 5126,
      "count": 476,
      "max": [
        0.9945583343505859,
        0.99576336145401,
        0.9995113611221313,
        1.0
      ],
      "min": [
        -0.9937692284584045,
        -0.9886645674705505,
        -0.9970802664756775,
        1.0
      ],
      "type": "VEC4"
    },
    {
      "bufferView": 1,
      "byteOffset": 9096,
      "componentType": 5126,
      "count": 476,
      "max": [
        0.9304890036582947,
        0.5085219740867615
      ],
      "min": [
        0.01949870027601719,
        0.0048828101716935635
      ],
      "type": "VEC2"
    },
    {
      "bufferView": 0,
      "byteOffset": 14424,
      "componentType": 5125,
      "count": 1812,
      "type": "SCALAR"
    },
    {
      "bufferView": 2,
      "byteOffset": 38712,
      "componentType": 5126,
      "count": 560,
      "max": [
        1.6482399702072144,
        0.05686650052666664,
        -0.1225999966263771
      ],
      "min": [
        0.851078987121582,
        -0.6796190142631531,
        -0.8509889841079712
      ],
      "type": "VEC3"
    },
    {
      "bufferView": 2,
      "byteOffset": 45432,
      "componentType": 5126,
      "count": 560,
      "max": [
        0.9841152429580688,
        0.9980963468551636,
        0.9938347339630127
      ],
      "min": [
        -0.9431635141372681,
        -0.9985777735710144,
        -0.9926635026931763
      ],
      "type": "VEC3"
    },
    {
      "bufferView": 3,
      "byteOffset": 25808,
      "componentType": 5126,
      "count": 560,
      "max": [
        0.9874773025512695,
        0.9889969825744629,
        0.9995636343955994,
        1.0
      ],
      "min": [
        -0.9773057699203491,
        -0.9887769818305969,
        -0.9972653388977051,
        1.0
      ],
      "type": "VEC4"
    },
    {
      "bufferView": 1,
      "byteOffset": 12904,
      "componentType": 5126,
      "count": 560,
      "max": [
        0.9836310148239136,
        0.9940119981765747
      ],
      "min": [
        0.0048828101716935635,
        0.0048828101716935635
      ],
      "type": "VEC2"
    },
    {
      "bufferView": 0,
      "byteOffset": 21672,
      "componentType": 5125,
      "count": 1176,
      "type": "SCALAR"
    },
    {
      "bufferView": 2,
      "byteOffset": 52152,
      "componentType": 5126,
      "count": 881,
      "max": [
        1.3385100364685059,
        1.0042500495910645,
        0.27763599157333374
      ],
      "min": [
        0.25752899050712585,
        -0.9957489967346191,
        -0.8145890235900879
      ],
      "type": "VEC3"
    },
    {
      "bufferView": 2,
      "byteOffset": 62724,
      "componentType": 5126,
      "count": 881,
      "max": [
        0.9986200928688049,
        0.9998342394828796,
        0.9996203780174255
      ],
      "min": [
        -0.9993492364883423,
        -1.0,
        -0.9997434616088867
      ],
      "type": "VEC3"
    },
    {
      "bufferView": 3,
      "byteOffset": 34768,
      "componentType": 5126,
      "count": 881,
      "max": [
        0.999098002910614,
        0.9996813535690308,
        0.9935345649719238,
        1.0
      ],
      "min": [
        -0.995262086391449,
        -0.9991503953933716,
        -0.9957937002182007,
        -1.0
      ],
      "type": "VEC4"
    },
    {
      "bufferView": 1,
      "byteOffset": 17384,
      "componentType": 5126,
      "count": 881,
      "max": [
        0.9890589714050293,
        0.9951170086860657
      ],
      "min": [
        0.0048828101716935635,
        0.0048828101716935635
      ],
      "type": "VEC2"
    },
    {
      "bufferView": 0,
      "byteOffset": 26376,
      "componentType": 5125,
      "count": 3168,
      "type": "SCALAR"
    },
    {
      "bufferView": 2,
      "byteOffset": 73296,
      "componentType": 5126,
      "count": 84,
      "max": [
        1.6231499910354614,
        -0.9778079986572266,
        1.6760499477386475
      ],
      "min": [
        -1.5811200141906738,
        -1.2773900032043457,
        -1.5517499446868896
      ],
      "type": "VEC3"
    },
    {
      "bufferView": 2,
      "byteOffset": 74304,
      "componentType": 5126,
      "count": 84,
      "max": [
        0.9876553416252136,
        1.0,
        0.9800370931625366
      ],
      "min": [
        -0.9579416513442993,
        -1.0,
        -0.980036735534668
      ],
      "type": "VEC3"
    },
    {
      "bufferView": 3,
      "byteOffset": 48864,
      "componentType": 5126,
      "count": 84,
      "max": [
        0.9999861121177673,
        0.8737351894378662,
        0.9891372323036194,
        1.0
      ],
      "min": [
        -0.8560092449188232,
        -0.9821066856384277,
        -0.3481194078922272,
        1.0
      ],
      "type": "VEC4"
    },
    {
      "bufferView": 1,
      "byteOffset": 24432,
      "componentType": 5126,
      "count": 84,
      "max": [
        0.9951170086860657,
        0.9777089953422546
      ],
      "min": [
        0.0048828101716935635,
        0.0048828101716935635
      ],
      "type": "VEC2"
    },
    {
      "bufferView": 0,
      "byteOffset": 39048,
      "componentType": 5125,
      "count": 312,
      "type": "SCALAR"
    },
    {
      "bufferView": 2,
      "byteOffset": 75312,
      "componentType": 5126,
      "count": 881,
      "max": [
        0.7903329730033875,
        0.9766740202903748,
        0.9762730002403259
      ],
      "min": [
        -0.7903329730033875,
        -1.0,
        0.012630400247871876
      ],
      "type": "VEC3"
    },
    {
      "bufferView": 2,
      "byteOffset": 85884,
      "componentType": 5126,
      "count": 881,
      "max": [
        0.9996448755264282,
        0.9998348951339722,
        0.9981310963630676
      ],
      "min": [
        -0.9996633529663086,
        -1.0,
        -0.99847012758255
      ],
      "type": "VEC3"
    },
    {
      "bufferView": 3,
      "byteOffset": 50208,
      "componentType": 5126,
      "count": 881,
      "max": [
        0.9999997019767761,
        0.9988653063774109,
        0.9976450204849243,
        1.0
      ],
      "min": [
        -0.9999995231628418,
        -0.9999752640724182,
        -0.9959452152252197,
        -1.0
      ],
      "type": "VEC4"
    },
    {
      "bufferView": 1,
      "byteOffset": 25104,
      "componentType": 5126,
      "count": 881,
      "max": [
        0.9951170086860657,
        0.9788860082626343
      ],
      "min": [
        0.0048828101716935635,
        0.0048828101716935635
      ],
      "type": "VEC2"
    },
    {
      "bufferView": 0,
      "byteOffset": 40296,
      "componentType": 5125,
      "count": 3168,
      "type": "SCALAR"
    }
  ],
  "asset": {
    "extras": {
      "author": "kand8998 (https://sketchfab.com/KaitlynAndrus)",
      "license": "CC-BY-4.0 (http://creativecommons.org/licenses/by/4.0/)",
      "source": "https://sketchfab.com/3d-models/christmas-elves-ae181dfdece041b2938a3afb3c552c0c",
      "title": "Christmas Elves"
    },
    "generator": "Sketchfab-12.68.0",
    "version": "2.0"
  },
  "bufferViews": [
    {
      "buffer": 0,
      "byteLength": 52968,
      "name": "floatBufferViews",
      "target": 34963
    },
    {
      "buffer": 0,
      "byteLength": 32152,
      "byteOffset": 52968,
      "byteStride": 8,
      "name": "floatBufferViews",
      "target": 34962
    },
    {
      "buffer": 0,
      "byteLength": 96456,
      "byteOffset": 85120,
      "byteStride": 12,
      "name": "floatBufferViews",
      "target": 34962
    },
    {
      "buffer": 0,
      "byteLength": 64304,
      "byteOffset": 181576,
      "byteStride": 16,
      "name": "floatBufferViews",
      "target": 34962
    }
  ],
  "buffers": [
    {
      "byteLength": 245880,
      "uri": "scene.bin"
    }
  ],
  "images": [
    {
      "uri": "textures/Elf_Shader_baseColor.jpeg"
    },
    {
      "uri": "textures/Elf_Shader_metallicRoughness.png"
    },
    {
      "uri": "textures/Elf_Shader_emissive.jpeg"
    },
    {
      "uri": "textures/Elf_Shader_normal.png"
    },
    {
      "uri": "textures/StandShader_baseColor.png"
    },
    {
      "uri": "textures/StandShader_metallicRoughness.png"
    },
    {
      "uri": "textures/StandShader_emissive.jpeg"
    },
    {
      "uri": "textures/StandShader_normal.png"
    },
    {
      "uri": "textures/GiftTomte_Shader1_baseColor.png"
    },
    {
      "uri": "textures/GiftTomte_Shader1_metallicRoughness.png"
    },
    {
      "uri": "textures/GiftTomte_Shader1_emissive.jpeg"
    },
    {
      "uri": "textures/GiftTomte_Shader1_normal.png"
    },
    {
      "uri": "textures/Extras_shader_baseColor.png"
    },
    {
      "uri": "textures/Extras_shader_metallicRoughness.png"
    },
    {
      "uri": "textures/Extras_shader_emissive.jpeg"
    },
    {
      "uri": "textures/Extras_shader_normal.png"
    },
    {
      "uri": "textures/CupTomte_Shader_baseColor.png"
    },
    {
      "uri": "textures/CupTomte_Shader_metallicRoughness.png"
    },
    {
      "uri": "textures/CupTomte_Shader_emissive.jpeg"
    },
    {
      "uri": "textures/CupTomte_Shader_normal.png"
    }
  ],
  "materials": [
    {
      "doubleSided": true,
      "emissiveFactor": [
        0.805096250591856,
        0.805096250591856,
        0.805096250591856
      ],
      "emissiveTexture": {
        "index": 2
      },
      "name": "Elf_Shader",
      "normalTexture": {
        "index": 3
      },
      "occlusionTexture": {
        "index": 1
      },
      "pbrMetallicRoughness": {
        "baseColorTexture": {
          "index": 0
        },
        "metallicRoughnessTexture": {
          "index": 1
        }
      }
    },
    {
      "alphaMode": "BLEND",
      "doubleSided": true,
      "emissiveFactor": [
        1.0,
        1.0,
        1.0
      ],
      "emissiveTexture": {
        "index": 6
      },
      "name": "StandShader",
      "normalTexture": {
        "index": 7
      },
      "occlusionTexture": {
        "index": 5
      },
      "pbrMetallicRoughness": {
        "baseColorTexture": {
          "index": 4
        },
        "metallicRoughnessTexture": {
          "index": 5
        }
      }
    },
    {
      "alphaMode": "BLEND",
      "doubleSided": true,
      "emissiveFactor": [
        1.0,
        1.0,
        1.0
      ],
      "emissiveTexture": {
        "index": 10
      },
      "name": "GiftTomte_Shader1",
      "normalTexture": {
        "index": 11
      },
      "occlusionTexture": {
        "index": 9
      },
      "pbrMetallicRoughness": {
        "baseColorTexture": {
          "index": 8
        },
        "metallicRoughnessTexture": {
          "index": 9
        }
      }
    },
    {
      "alphaMode": "BLEND",
      "doubleSided": true,
      "emissiveFactor": [
        1.0,
        1.0,
        1.0
      ],
      "emissiveTexture": {
        "index": 14
      },
      "name": "Extras_shader",
      "normalTexture": {
        "index": 15
      },
      "occlusionTexture": {
        "index": 13
      },
      "pbrMetallicRoughness": {
        "baseColorTexture": {
          "index": 12
        },
        "metallicRoughnessTexture": {
          "index": 13
        }
      }
    },
    {
      "alphaMode": "BLEND",
      "doubleSided": true,
      "emissiveFactor": [
        1.0,
        1.0,
        1.0
      ],
      "emissiveTexture": {
        "index": 18
      },
      "name": "CupTomte_Shader",
      "normalTexture": {
        "index": 19
      },
      "occlusionTexture": {
        "index": 17
      },
      "pbrMetallicRoughness": {
        "baseColorTexture": {
          "index": 16
        },
        "metallicRoughnessTexture": {
          "index": 17
        }
      }
    }
  ],
  "meshes": [
    {
      "name": "defaultMaterial",
      "primitives": [
        {
          "attributes": {
            "NORMAL": 1,
            "POSITION": 0,
            "TANGENT": 2,
            "TEXCOORD_0": 3
          },
          "indices": 4,
          "material": 3,
          "mode": 4
        }
      ]
    },
    {
      "name": "defaultMaterial",
      "primitives": [
        {
          "attributes": {
            "NORMAL": 6,
            "POSITION": 5,
            "TANGENT": 7,
            "TEXCOORD_0": 8
          },
          "indices": 9,
          "material": 3,
          "mode": 4
        }
      ]
    },
    {
      "name": "defaultMaterial",
      "primitives": [
        {
          "attributes": {
            "NORMAL": 11,
            "POSITION": 10,
            "TANGENT": 12,
            "TEXCOORD_0": 13
          },
          "indices": 14,
          "material": 4,
          "mode": 4
        }
      ]
    },
    {
      "name": "defaultMaterial",
      "primitives": [
        {
          "attributes": {
            "NORMAL": 16,
            "POSITION": 15,
            "TANGENT": 17,
            "TEXCOORD_0": 18
          },
          "indices": 19,
          "material": 3,
          "mode": 4
        }
      ]
    },
    {
      "name": "defaultMaterial",
      "primitives": [
        {
          "attributes": {
            "NORMAL": 21,
            "POSITION": 20,
            "TANGENT": 22,
            "TEXCOORD_0": 23
          },
          "indices": 24,
          "material": 3,
          "mode": 4
        }
      ]
    },
    {
      "name": "defaultMaterial",
      "primitives": [
        {
          "attributes": {
            "NORMAL": 26,
            "POSITION": 25,
            "TANGENT": 27,
            "TEXCOORD_0": 28
          },
          "indices": 29,
          "material": 2,
          "mode": 4
        }
      ]
    },
    {
      "name": "defaultMaterial",
      "primitives": [
        {
          "attributes": {
            "NORMAL": 31,
            "POSITION": 30,
            "TANGENT": 32,
            "TEXCOORD_0": 33
          },
          "indices": 34,
          "material": 1,
          "mode": 4
        }
      ]
    },
    {
      "name": "defaultMaterial",
      "primitives": [
        {
          "attributes": {
            "NORMAL": 36,
            "POSITION": 35,
            "TANGENT": 37,
            "TEXCOORD_0": 38
          },
          "indices": 39,
          "material": 0,
          "mode": 4
        }
      ]
    }
  ],
  "nodes": [
    {
      "children": [
        1
      ],
      "matrix": [
        1.0,
        0.0,
        0.0,
        0.0,
        0.0,
        2.220446049250313e-16,
        -1.0,
        0.0,
        0.0,
        1.0,
        2.220446049250313e-16,
        0.0,
        0.0,
        0.0,
        0.0,
        1.0
      ],
      "name": "Sketchfab_model"
    },
    {
      "children": [
        2,
        4,
        6,
        8,
        10,
        12,
        14,
        16
      ],
      "matrix": [
        1.0,
        0.0,
        0.0,
        0.0,
        0.0,
        -4.371139006309477e-08,
        0.999999999999999,
        0.0,
        0.0,
        -0.999999999999999,
        -4.371139006309477e-08,
        0.0,
        0.0,
        0.0,
        0.0,
        1.0
      ],
      "name": "Collada visual scene group"
    },
    {
      "children": [
        3
      ],
      "name": "MusicStand"
    },
    {
      "mesh": 0,
      "name": "defaultMaterial"
    },
    {
      "children": [
        5
      ],
      "name": "Steam"
    },
    {
      "mesh": 1,
      "name": "defaultMaterial"
    },
    {
      "children": [
        7
      ],
      "name": "CupTomte"
    },
    {
      "mesh": 2,
      "name": "defaultMaterial"
    },
    {
      "children": [
        9
      ],
      "name": "HotChocolate"
    },
    {
      "mesh": 3,
      "name": "defaultMaterial"
    },
    {
      "children": [
        11
      ],
      "name": "Gift"
    },
    {
      "mesh": 4,
      "name": "defaultMaterial"
    },
    {
      "children": [
        13
      ],
      "name": "GiftTomte"
    },
    {
      "mesh": 5,
      "name": "defaultMaterial"
    },
    {
      "children": [
        15
      ],
      "name": "Base"
    },
    {
      "mesh": 6,
      "name": "defaultMaterial"
    },
    {
      "children": [
        17
      ],
      "name": "Tomte"
    },
    {
      "mesh": 7,
      "name": "defaultMaterial"
    }
  ],
  "samplers": [
    {
      "magFilter": 9729,
      "minFilter": 9987,
      "wrapS": 10497,
      "wrapT": 10497
    }
  ],
  "scene": 0,
  "scenes": [
    {
      "name": "Sketchfab_Scene",
      "nodes": [
        0
      ]
    }
  ],
  "textures": [
    {
      "sampler": 0,
      "source": 0
    },
    {
      "sampler": 0,
      "source": 1
    },
    {
      "sampler": 0,
      "source": 2
    },
    {
      "sampler": 0,
      "source": 3
    },
    {
      "sampler": 0,
      "source": 4
    },
    {
      "sampler": 0,
      "source": 5
    },
    {
      "sampler": 0,
      "source": 6
    },
    {
      "sampler": 0,
      "source": 7
    },
    {
      "sampler": 0,
      "source": 8
    },
    {
      "sampler": 0,
      "source": 9
    },
    {
      "sampler": 0,
      "source": 10
    },
    {
      "sampler": 0,
      "source": 11
    },
    {
      "sampler": 0,
      "source": 12
    },
    {
      "sampler": 0,
      "source": 13
    },
    {
      "sampler": 0,
      "source": 14
    },
    {
      "sampler": 0,
      "source": 15
    },
    {
      "sampler": 0,
      "source": 16
    },
    {
      "sampler": 0,
      "source": 17
    },
    {
      "sampler": 0,
      "source": 18
    },
    {
      "sampler": 0,
      "source": 19
    }
  ]
}
